<svg xmlns="http://www.w3.org/2000/svg" viewBox="0 0 44 40"><g data-name="Layer 2"><path d="M44 13.5C44 6 36.84 0 28 0c-6.6 0-12.26 3.37-14.71 8.19A20.79 20.79 0 0115.7 8c2.38-3.58 7-6 12.3-6 7.72 0 14 5.16 14 11.5a10.52 10.52 0 01-4.19 8.18 2 2 0 00-.66 2.1l.85 2.91-4.16-1.59a13.38 13.38 0 01-.41 2L41 30l-1.93-6.77A12.55 12.55 0 0044 13.5zM16 10C7.16 10 0 16 0 23.5a12.55 12.55 0 004.93 9.73L3 40l9-3.45a18.76 18.76 0 004 .45c8.84 0 16-6 16-13.5S24.84 10 16 10zm0 25a16.85 16.85 0 01-3.6-.4 2 2 0 00-.43 0 2 2 0 00-.72.13L6 36.69l.83-2.91a2 2 0 00-.66-2.1A10.52 10.52 0 012 23.5C2 17.16 8.28 12 16 12s14 5.16 14 11.5S23.72 35 16 35z" data-name="Chat Bubbles@2x.png"/></g></svg>