<svg xmlns="http://www.w3.org/2000/svg" width="66" height="75"><path fill-rule="evenodd" fill="#FFF" d="M63.806 21.956h-4.397a2.197 2.197 0 110-4.393h4.397a2.197 2.197 0 110 4.393zm-7.239-9.428a2.201 2.201 0 01-3.109 0 2.194 2.194 0 010-3.106l4.397-4.393a2.197 2.197 0 113.109 3.107l-4.397 4.392zM46.219 8.779a2.197 2.197 0 01-2.198-2.196V2.191a2.197 2.197 0 014.396 0v4.392a2.197 2.197 0 01-2.198 2.196zm14.775 30.102c-2.261 2.259-5.778 2.538-8.351.803l-.176.035a46.045 46.045 0 00-17.401 7.425l1.056 1.055a6.579 6.579 0 010 9.317l-1.554 1.553 4.663 4.659a6.59 6.59 0 010 9.317 6.595 6.595 0 01-9.326 0L19.023 62.174l-1.554 1.554a6.596 6.596 0 01-9.327 0l-6.218-6.212a6.58 6.58 0 010-9.317l11.408-11.397a45.95 45.95 0 0012.625-23.566l.035-.173c-1.707-2.515-1.508-6.036.803-8.345 2.572-2.569 6.756-2.569 9.327 0l24.872 24.847a6.59 6.59 0 010 9.316zM33.013 69.939a2.203 2.203 0 003.109 0 2.198 2.198 0 000-3.106l-10.881-10.87-3.109 3.106 10.881 10.87zm0-18.635l-1.452-1.45c-1.561 1.332-2.55 2.343-3.211 3.003l3.109 3.106 1.554-1.553c.86-.858.86-2.247 0-3.106zm-27.98 0a2.194 2.194 0 000 3.106l6.218 6.211c.859.859 2.25.859 3.109.001l10.881-10.871-9.327-9.317-10.881 10.87zm13.896-14.069l9.514 9.504A50.364 50.364 0 0148.83 36.047L29.633 16.869a50.284 50.284 0 01-10.704 20.366zm38.956-4.565L33.013 7.824a2.198 2.198 0 00-3.109 3.105l24.872 24.847a2.198 2.198 0 003.109-3.106zM17.469 51.304L14.36 54.41a2.2 2.2 0 01-3.109 0 2.194 2.194 0 010-3.106l3.109-3.105a2.2 2.2 0 013.109 0 2.195 2.195 0 010 3.105z"/></svg>