<svg xmlns="http://www.w3.org/2000/svg" width="463.9" height="330.9" viewBox="0 0 463.938 330.875"><path data-name="общий контур" d="M455.8 232.9l-52.8 4c-.8 2-1.7 4-2.6 5.9l49.8 18.8c4.6 1.7 6.7 7.5 4.8 12.8l-5.2 14.5c-1.9 5.3-7.2 8.3-11.7 6.6l-58.6-22.1c-32.1 34.7-85.3 57.5-145.5 57.5-60.9 0-114.5-23.3-146.4-58.7l-61.5 23.3c-4.6 1.7-9.8-1.2-11.7-6.6l-5.2-14.5c-1.9-5.3.2-11.1 4.8-12.8l53.2-20.1c-.7-1.4-1.3-2.9-1.9-4.3l-57-4.3c-4.9-.4-8.5-5.3-8.2-11.1l.9-15.6c.3-5.7 4.6-10.1 9.4-9.7l46.7 3.6c0-1.1-.1-2.1-.1-3.2 0-22.4 7.3-43.5 20.1-62a4.3 4.3 0 01-1.1-1C69.2 124 58.3 8.6 78 .9c23-8.9 87.1 53.2 97.7 69.5a232.1 232.1 0 01113.3-.9C301.1 52 363.4-7.9 386 .9c18.9 7.3 9.7 113.3 2.9 131.1 14.1 19.2 22.1 41.4 22.1 64.9 0 1-.1 1.9-.1 2.9l42.7-3.3c4.9-.4 9.1 4 9.4 9.7l.9 15.6c.4 5.7-3.3 10.7-8.1 11.1zm-180.8 39c-14.9-3.1-27.6-7-43-7s-28.1 3.9-43 7c-5.9 1.2-10.5 1-10-6s29.7-17 53-17 52.5 10 53 17-4.1 7.2-10 6zm-120.5-114a29.5 29.5 0 11-29.5 29.5 29.5 29.5 0 0129.5-29.5zm155 0a29.5 29.5 0 11-29.5 29.5 29.5 29.5 0 0129.5-29.5z" fill="#c0dfff" fill-rule="evenodd"/></svg>