<svg xmlns="http://www.w3.org/2000/svg" viewBox="0 0 44 40"><title>chats@1x</title><g id="Layer_2" data-name="Layer 2"><g id="General"><g id="Chat_Bubbles_2x.png" data-name="Chat Bubbles@2x.png"><path d="M44,13.5C44,6,36.84,0,28,0,21.4,0,15.74,3.37,13.29,8.19A20.79,20.79,0,0,1,15.7,8c2.38-3.58,7-6,12.3-6,7.72,0,14,5.16,14,11.5a10.52,10.52,0,0,1-4.19,8.18,2,2,0,0,0-.66,2.1L38,26.69,33.84,25.1a13.38,13.38,0,0,1-.41,2L41,30l-1.93-6.77A12.55,12.55,0,0,0,44,13.5ZM16,10C7.16,10,0,16,0,23.5a12.55,12.55,0,0,0,4.93,9.73L3,40l9-3.45A18.76,18.76,0,0,0,16,37c8.84,0,16-6,16-13.5S24.84,10,16,10Zm0,25a16.85,16.85,0,0,1-3.6-.4,2,2,0,0,0-.43,0,2,2,0,0,0-.72.13L6,36.69l.83-2.91a2,2,0,0,0-.66-2.1A10.52,10.52,0,0,1,2,23.5C2,17.16,8.28,12,16,12s14,5.16,14,11.5S23.72,35,16,35Z"/></g></g></g></svg>